<svg width="12" height="8" viewBox="0 0 12 8" fill="none" xmlns="http://www.w3.org/2000/svg">
<path d="M0 6.10352e-05H12V7.99999H0V6.10352e-05Z" fill="white"/>
<path d="M6.75 0H5.25V3.24992H0V4.74989H5.25V7.99981H6.75V4.74989H12V3.24992H6.75V0Z" fill="#D80027"/>
<path d="M9.22934 5.39117L12 6.93043V5.39117H9.22934ZM7.30434 5.39117L12 7.99981V7.26215L8.6322 5.39117H7.30434ZM10.7492 7.99981L7.30434 6.08585V7.99981H10.7492Z" fill="#0052B4"/>
<path d="M7.30434 5.39117L12 7.99981V7.26215L8.6322 5.39117H7.30434Z" fill="white"/>
<path d="M7.30434 5.39117L12 7.99981V7.26215L8.6322 5.39117H7.30434Z" fill="#D80027"/>
<path d="M2.11737 5.39111L0 6.56742V5.39111H2.11737ZM4.69566 5.72284V7.99977H0.597445L4.69566 5.72284Z" fill="#0052B4"/>
<path d="M3.3678 5.39117L0 7.26215V7.99981L4.69566 5.39117H3.3678Z" fill="#D80027"/>
<path d="M2.77066 2.60864L0 1.06939V2.60864H2.77066ZM4.69566 2.60864L0 0V0.737658L3.3678 2.60864H4.69566ZM1.25077 0L4.69566 1.91396V0H1.25077Z" fill="#0052B4"/>
<path d="M4.69566 2.60864L0 0V0.737658L3.3678 2.60864H4.69566Z" fill="white"/>
<path d="M4.69566 2.60864L0 0V0.737658L3.3678 2.60864H4.69566Z" fill="#D80027"/>
<path d="M9.88263 2.60866L12 1.43236V2.60866H9.88263ZM7.30434 2.27693V0H11.4026L7.30434 2.27693Z" fill="#0052B4"/>
<path d="M8.6322 2.60864L12 0.737658V0L7.30434 2.60864H8.6322Z" fill="#D80027"/>
</svg>
