<svg width="12" height="8" viewBox="0 0 12 8" fill="none" xmlns="http://www.w3.org/2000/svg">
<path d="M0 0H12V8H0V0Z" fill="white"/>
<path fill-rule="evenodd" clip-rule="evenodd" d="M1.83208 2.42325L2.94148 0.759146L3.23343 0.953778L2.12403 2.61788L1.83208 2.42325ZM2.24811 2.7006L3.35751 1.0365L3.64946 1.23113L2.54006 2.89523L2.24811 2.7006ZM2.66414 2.97795L3.77353 1.31385L4.06548 1.50848L2.95608 3.17258L2.66414 2.97795ZM7.93379 6.49104L9.04319 4.82694L9.33514 5.02157L8.22574 6.68567L7.93379 6.49104ZM8.34982 6.76839L9.45921 5.10429L9.75116 5.29892L8.64176 6.96302L8.34982 6.76839ZM10.1672 5.57627L9.05779 7.24037L8.76584 7.04574L9.87524 5.38164L10.1672 5.57627Z" fill="black"/>
<path fill-rule="evenodd" clip-rule="evenodd" d="M9.66277 6.61755L8.27602 5.69305L8.43821 5.44976L9.82496 6.37426L9.66277 6.61755Z" fill="white"/>
<path d="M7.66375 5.10914C8.27645 4.19008 8.0281 2.94834 7.10904 2.33564C6.18998 1.72293 4.94825 1.97128 4.33554 2.89034C3.72284 3.8094 3.97119 5.05114 4.89025 5.66384C5.8093 6.27655 7.05104 6.0282 7.66375 5.10914Z" fill="#CA163A"/>
<path d="M4.33554 2.89034C4.02935 3.34963 4.1536 3.9709 4.61289 4.27709C5.07219 4.58329 5.69345 4.45903 5.99964 3.99974C6.30584 3.54045 6.9271 3.41619 7.38639 3.72239C7.84569 4.02858 7.96994 4.64985 7.66374 5.10914C7.05136 6.02772 5.80883 6.27623 4.89024 5.66384C3.97166 5.05145 3.72315 3.80893 4.33554 2.89034Z" fill="#0E4896"/>
<path fill-rule="evenodd" clip-rule="evenodd" d="M9.05778 0.759125L10.1672 2.42323L9.87523 2.61786L8.76583 0.953756L9.05778 0.759125ZM8.64175 1.03648L9.75117 2.70058L9.45922 2.89521L8.34981 1.23112L8.64175 1.03648ZM8.22573 1.31383L9.33513 2.97792L9.04318 3.17256L7.93378 1.50846L8.22573 1.31383ZM2.95606 4.82693L4.06546 6.49103L3.77351 6.68566L2.66411 5.02156L2.95606 4.82693ZM2.54003 5.10428L3.64943 6.76838L3.35749 6.96301L2.24808 5.29892L2.54003 5.10428ZM2.12403 5.38163L3.23343 7.04574L2.94148 7.24037L1.83208 5.57626L2.12403 5.38163Z" fill="black"/>
<path d="M2.74133 6.17196L3.15736 5.89463L2.74133 6.17196ZM8.35711 2.42811L8.84303 2.10416L8.35711 2.42811ZM9.25905 1.82682L9.67508 1.54947L9.25905 1.82682Z" fill="black"/>
<path fill-rule="evenodd" clip-rule="evenodd" d="M9.75617 1.67112L9.34014 1.94846L9.17795 1.70517L9.59398 1.42783L9.75617 1.67112ZM8.92412 2.22581L8.4382 2.54976L8.276 2.30647L8.76192 1.98252L8.92412 2.22581ZM3.23845 6.01628L2.82242 6.29361L2.66023 6.05032L3.07626 5.77298L3.23845 6.01628Z" fill="white"/>
</svg>
