<svg width="17" height="16" viewBox="0 0 17 16" fill="none" xmlns="http://www.w3.org/2000/svg">
<rect width="17" height="16" rx="8" fill="#4B6587"/>
<path d="M8.19336 12.125C7.69336 12.125 7.25195 11.9987 6.86914 11.7461C6.48633 11.4909 6.18685 11.1315 5.9707 10.668C5.75456 10.2018 5.64648 9.65104 5.64648 9.01563C5.64648 8.38542 5.75456 7.83854 5.9707 7.375C6.18685 6.91146 6.48763 6.55339 6.87305 6.30078C7.25846 6.04818 7.70378 5.92188 8.20898 5.92188C8.59961 5.92188 8.9082 5.98698 9.13477 6.11719C9.36393 6.24479 9.53841 6.39062 9.6582 6.55469C9.7806 6.71615 9.87565 6.84896 9.94336 6.95312H10.0215V4H10.9434V12H10.0527V11.0781H9.94336C9.87565 11.1875 9.7793 11.3255 9.6543 11.4922C9.5293 11.6562 9.35091 11.8034 9.11914 11.9336C8.88737 12.0612 8.57878 12.125 8.19336 12.125ZM8.31836 11.2969C8.68815 11.2969 9.00065 11.2005 9.25586 11.0078C9.51107 10.8125 9.70508 10.543 9.83789 10.1992C9.9707 9.85286 10.0371 9.45312 10.0371 9C10.0371 8.55208 9.97201 8.16016 9.8418 7.82422C9.71159 7.48568 9.51888 7.22266 9.26367 7.03516C9.00846 6.84505 8.69336 6.75 8.31836 6.75C7.92773 6.75 7.60221 6.85026 7.3418 7.05078C7.08398 7.2487 6.88997 7.51823 6.75977 7.85937C6.63216 8.19792 6.56836 8.57812 6.56836 9C6.56836 9.42708 6.63346 9.8151 6.76367 10.1641C6.89648 10.5104 7.0918 10.7865 7.34961 10.9922C7.61003 11.1953 7.93294 11.2969 8.31836 11.2969Z" fill="white"/>
</svg>
