<svg width="12" height="8" viewBox="0 0 12 8" fill="none" xmlns="http://www.w3.org/2000/svg">
<path d="M0 0H12V8H0V0Z" fill="#D80027"/>
<path d="M5.30526 5.59535L5.07836 5.23043L4.65965 5.33336L4.93801 5.00353L4.71111 4.63862L5.11111 4.80003L5.38714 4.4702L5.35673 4.90061L5.75673 5.06201L5.33801 5.16494L5.30526 5.59535ZM6.79766 1.91815L6.5614 2.27839L6.83275 2.61289L6.41871 2.50061L6.18246 2.86318L6.15907 2.43277L5.74503 2.32049L6.14737 2.16611L6.12398 1.7357L6.39532 2.0702L6.79766 1.91815ZM5.52515 0.594177L5.47836 1.02225L5.87135 1.20003L5.45029 1.28891L5.40351 1.71698L5.1883 1.34272L4.76959 1.4316L5.05731 1.11114L4.84211 0.739207L5.23509 0.914645L5.52515 0.594177ZM6.84912 3.78482L6.50059 4.03979L6.63626 4.44915L6.28772 4.19652L5.93918 4.45383L6.07018 4.04213L5.72164 3.79184L6.15205 3.7895L6.28304 3.3778L6.41871 3.78716L6.84912 3.78482ZM2.69006 1.08307L3.09474 2.33453H4.40936L3.34737 3.10412L3.75205 4.35558L2.69006 3.58365L1.62573 4.35558L2.03275 3.10412L0.968422 2.33453H2.28538L2.69006 1.08307Z" fill="#FFDA44"/>
</svg>
