<svg width="12" height="8" viewBox="0 0 12 8" fill="none" xmlns="http://www.w3.org/2000/svg">
<path d="M0 0H12V8H0V0Z" fill="#095FAD"/>
<path d="M7.98412 0H11.9516V7.99948H7.98412V0ZM0.0491524 0H4.01663V7.99948H0.0491524V0Z" fill="#BE1229"/>
<path d="M2.56189 3.88983H2.90528V5.62539H2.56189V3.88983ZM1.18372 3.88983H1.5271V5.62539H1.18372V3.88983Z" fill="#FFDA44"/>
<path d="M2.0445 5.10379C2.23414 5.10379 2.38788 4.9488 2.38788 4.75761C2.38788 4.56643 2.23414 4.41144 2.0445 4.41144C1.85485 4.41144 1.70111 4.56643 1.70111 4.75761C1.70111 4.9488 1.85485 5.10379 2.0445 5.10379Z" fill="#FFDA44"/>
<path d="M1.70111 5.27921H2.3902V5.62539H1.70111V5.27921ZM1.70111 3.88983H2.3902V4.23601H1.70111V3.88983Z" fill="#FFDA44"/>
<path d="M2.0445 3.71439C2.23414 3.71439 2.38788 3.5594 2.38788 3.36821C2.38788 3.17702 2.23414 3.02203 2.0445 3.02203C1.85485 3.02203 1.70111 3.17702 1.70111 3.36821C1.70111 3.5594 1.85485 3.71439 2.0445 3.71439Z" fill="#FFDA44"/>
<path d="M1.81944 2.89809H2.27187L2.04449 2.5332L1.81944 2.89809Z" fill="#FFDA44"/>
</svg>
