<svg width="40" height="16" viewBox="0 0 40 16" fill="none" xmlns="http://www.w3.org/2000/svg">
<rect width="40" height="16" rx="8" fill="#867070"/>
<path d="M14.1323 6L11.9136 12H10.9761L8.75732 6H9.75732L11.4136 10.7812H11.4761L13.1323 6H14.1323ZM17.6499 12.125C17.0718 12.125 16.5731 11.9974 16.1538 11.7422C15.7371 11.4844 15.4155 11.125 15.189 10.6641C14.965 10.2005 14.853 9.66146 14.853 9.04688C14.853 8.43229 14.965 7.89062 15.189 7.42187C15.4155 6.95052 15.7306 6.58333 16.1343 6.32031C16.5405 6.05469 17.0145 5.92188 17.5562 5.92188C17.8687 5.92188 18.1772 5.97396 18.4819 6.07812C18.7866 6.18229 19.064 6.35156 19.314 6.58594C19.564 6.81771 19.7632 7.125 19.9116 7.50781C20.0601 7.89062 20.1343 8.36198 20.1343 8.92187V9.3125H15.5093V8.51562H19.1968C19.1968 8.17708 19.1291 7.875 18.9937 7.60937C18.8608 7.34375 18.6707 7.13411 18.4233 6.98047C18.1785 6.82682 17.8895 6.75 17.5562 6.75C17.189 6.75 16.8713 6.84115 16.603 7.02344C16.3374 7.20312 16.133 7.4375 15.9897 7.72656C15.8465 8.01562 15.7749 8.32552 15.7749 8.65625V9.1875C15.7749 9.64063 15.853 10.0247 16.0093 10.3398C16.1681 10.6523 16.3882 10.8906 16.6694 11.0547C16.9507 11.2161 17.2775 11.2969 17.6499 11.2969C17.8921 11.2969 18.1108 11.263 18.3062 11.1953C18.5041 11.125 18.6746 11.0208 18.8179 10.8828C18.9611 10.7422 19.0718 10.5677 19.1499 10.3594L20.0405 10.6094C19.9468 10.9115 19.7892 11.1771 19.5679 11.4062C19.3465 11.6328 19.0731 11.8099 18.7476 11.9375C18.422 12.0625 18.0562 12.125 17.6499 12.125ZM21.5366 12V6H22.4272V6.90625H22.4897C22.5991 6.60938 22.797 6.36849 23.0835 6.18359C23.37 5.9987 23.6929 5.90625 24.0522 5.90625C24.12 5.90625 24.2046 5.90755 24.3062 5.91016C24.4077 5.91276 24.4845 5.91667 24.5366 5.92188V6.85937C24.5054 6.85156 24.4338 6.83984 24.3218 6.82422C24.2124 6.80599 24.0965 6.79687 23.9741 6.79687C23.6825 6.79687 23.422 6.85807 23.1929 6.98047C22.9663 7.10026 22.7866 7.26693 22.6538 7.48047C22.5236 7.69141 22.4585 7.93229 22.4585 8.20312V12H21.5366ZM25.7544 12V4H26.6763V6.95312H26.7544C26.8221 6.84896 26.9159 6.71615 27.0356 6.55469C27.158 6.39062 27.3325 6.24479 27.5591 6.11719C27.7882 5.98698 28.0981 5.92188 28.4888 5.92188C28.994 5.92188 29.4393 6.04818 29.8247 6.30078C30.2101 6.55339 30.5109 6.91146 30.7271 7.375C30.9432 7.83854 31.0513 8.38542 31.0513 9.01563C31.0513 9.65104 30.9432 10.2018 30.7271 10.668C30.5109 11.1315 30.2114 11.4909 29.8286 11.7461C29.4458 11.9987 29.0044 12.125 28.5044 12.125C28.119 12.125 27.8104 12.0612 27.5786 11.9336C27.3468 11.8034 27.1685 11.6562 27.0435 11.4922C26.9185 11.3255 26.8221 11.1875 26.7544 11.0781H26.645V12H25.7544ZM26.6606 9C26.6606 9.45312 26.7271 9.85286 26.8599 10.1992C26.9927 10.543 27.1867 10.8125 27.4419 11.0078C27.6971 11.2005 28.0096 11.2969 28.3794 11.2969C28.7648 11.2969 29.0864 11.1953 29.3442 10.9922C29.6047 10.7865 29.8 10.5104 29.9302 10.1641C30.063 9.8151 30.1294 9.42708 30.1294 9C30.1294 8.57812 30.0643 8.19792 29.9341 7.85937C29.8065 7.51823 29.6125 7.2487 29.3521 7.05078C29.0942 6.85026 28.77 6.75 28.3794 6.75C28.0044 6.75 27.6893 6.84505 27.4341 7.03516C27.1789 7.22266 26.9862 7.48568 26.856 7.82422C26.7257 8.16016 26.6606 8.55208 26.6606 9Z" fill="white"/>
</svg>
